<svg xmlns="http://www.w3.org/2000/svg" viewBox="0 0 1920 1080">
    <defs>
      <linearGradient id="forestSky" x1="0" y1="0" x2="0" y2="1">
        <stop offset="0%" stop-color="#87ceeb"/>
        <stop offset="50%" stop-color="#a8d8f1"/>
        <stop offset="100%" stop-color="#b8e6bd"/>
      </linearGradient>
      <linearGradient id="forest" x1="0" y1="0" x2="0" y2="1">
        <stop offset="0%" stop-color="#2d5016"/>
        <stop offset="100%" stop-color="#1a3a0f"/>
      </linearGradient>
    </defs>
    <rect width="1920" height="1080" fill="url(#forestSky)"/>
    <rect y="600" width="1920" height="480" fill="url(#forest)"/>
    <ellipse cx="200" cy="400" rx="80" ry="120" fill="#1a4d1f"/>
    <ellipse cx="500" cy="350" rx="100" ry="150" fill="#1a5a2a"/>
    <ellipse cx="900" cy="380" rx="90" ry="140" fill="#1a4d1f"/>
    <ellipse cx="1400" cy="340" rx="110" ry="160" fill="#1a5a2a"/>
    <ellipse cx="1800" cy="360" rx="85" ry="130" fill="#1a4d1f"/>
    <rect x="180" y="500" width="40" height="200" fill="#6b4423"/>
    <rect x="480" y="480" width="40" height="220" fill="#6b4423"/>
    <rect x="880" y="490" width="40" height="210" fill="#6b4423"/>
    <rect x="1380" y="480" width="40" height="220" fill="#6b4423"/>
    <rect x="1780" y="490" width="40" height="210" fill="#6b4423"/>
    <circle cx="960" cy="650" r="150" fill="none" stroke="#8fbc8f" stroke-width="3" opacity="0.6"/>
    <circle cx="960" cy="700" r="20" fill="#ff6b35" opacity="0.7"/>
    <circle cx="950" cy="680" r="15" fill="#ff8c42" opacity="0.6"/>
    <circle cx="970" cy="680" r="15" fill="#ff8c42" opacity="0.6"/>
    <circle cx="750" cy="680" r="8" fill="#8b8b8b"/>
    <circle cx="1170" cy="680" r="8" fill="#8b8b8b"/>
    <circle cx="1170" cy="660" r="8" fill="#8b8b8b"/>
    <circle cx="750" cy="660" r="8" fill="#8b8b8b"/>
    <circle cx="1600" cy="150" r="80" fill="#ffeb3b" opacity="0.4"/>
  </svg>