<svg xmlns="http://www.w3.org/2000/svg" viewBox="0 0 1920 1080">
    <defs>
      <radialGradient id="mysticVoid" cx="50%" cy="50%" r="70%">
        <stop offset="0%" stop-color="#2a1a4a"/>
        <stop offset="100%" stop-color="#0f0820"/>
      </radialGradient>
      <filter id="glow2"><feGaussianBlur stdDeviation="3" result="coloredBlur"/><feMerge><feMergeNode in="coloredBlur"/><feMergeNode in="SourceGraphic"/></feMerge></filter>
    </defs>
    <rect width="1920" height="1080" fill="url(#mysticVoid)"/>
    <polygon points="600,200 1320,200 1400,900 520,900" fill="#1a1a4a" opacity="0.6"/>
    <rect x="700" y="300" width="80" height="600" fill="#2a2a5a"/>
    <rect x="1140" y="300" width="80" height="600" fill="#2a2a5a"/>
    <circle cx="740" cy="500" r="25" fill="none" stroke="#7c3aed" stroke-width="2" filter="url(#glow2)"/>
    <path d="M 740 480 L 740 520 M 720 500 L 760 500" stroke="#7c3aed" stroke-width="2" filter="url(#glow2)"/>
    <circle cx="1180" cy="500" r="25" fill="none" stroke="#d946ef" stroke-width="2" filter="url(#glow2)"/>
    <path d="M 1180 480 L 1180 520 M 1160 500 L 1200 500" stroke="#d946ef" stroke-width="2" filter="url(#glow2)"/>
    <circle cx="400" cy="300" r="20" fill="#7c3aed" opacity="0.6" filter="url(#glow2)"/>
    <circle cx="1520" cy="350" r="25" fill="#d946ef" opacity="0.5" filter="url(#glow2)"/>
    <circle cx="960" cy="200" r="18" fill="#a78bfa" opacity="0.6" filter="url(#glow2)"/>
    <path d="M 400 300 Q 600 250 800 300" stroke="#7c3aed" stroke-width="2" fill="none" opacity="0.4"/>
    <path d="M 1520 350 Q 1300 380 1100 350" stroke="#d946ef" stroke-width="2" fill="none" opacity="0.4"/>
    <path d="M 960 200 Q 900 400 1000 600" stroke="#a78bfa" stroke-width="2" fill="none" opacity="0.3"/>
    <circle cx="960" cy="550" r="120" fill="none" stroke="#7c3aed" stroke-width="2" opacity="0.6"/>
    <circle cx="960" cy="550" r="100" fill="none" stroke="#d946ef" stroke-width="1" opacity="0.4"/>
    <circle cx="300" cy="150" r="3" fill="#ffd700"/>
    <circle cx="900" cy="100" r="2" fill="#ffd700"/>
    <circle cx="1600" cy="120" r="3" fill="#ffd700"/>
    <circle cx="500" cy="80" r="2" fill="#ffd700"/>
    <circle cx="1200" cy="150" r="2" fill="#ffd700"/>
  </svg>