<svg xmlns="http://www.w3.org/2000/svg" viewBox="0 0 1920 1080">
    <defs>
      <linearGradient id="nightSky" x1="0" y1="0" x2="0" y2="1">
        <stop offset="0%" stop-color="#1a1a3a"/>
        <stop offset="100%" stop-color="#3a3a5a"/>
      </linearGradient>
      <linearGradient id="rooftops" x1="0" y1="0" x2="1" y2="0">
        <stop offset="0%" stop-color="#2a2a3a"/>
        <stop offset="50%" stop-color="#1a1a2a"/>
        <stop offset="100%" stop-color="#2a2a3a"/>
      </linearGradient>
      <filter id="moonGlow"><feGaussianBlur stdDeviation="2" result="coloredBlur"/><feMerge><feMergeNode in="coloredBlur"/><feMergeNode in="SourceGraphic"/></feMerge></filter>
    </defs>
    <rect width="1920" height="1080" fill="url(#nightSky)"/>
    <polygon points="0,500 200,400 500,450 800,350 1100,420 1400,380 1700,450 1920,400 1920,1080 0,1080" fill="url(#rooftops)"/>
    <polygon points="100,500 300,350 400,500" fill="#1a1a2a"/>
    <polygon points="600,450 900,280 1000,450" fill="#2a2a3a"/>
    <polygon points="1200,420 1500,300 1600,420" fill="#1a1a2a"/>
    <rect x="150" y="420" width="15" height="15" fill="#0a0a1a"/>
    <rect x="180" y="420" width="15" height="15" fill="#ffd700" opacity="0.6"/>
    <rect x="210" y="420" width="15" height="15" fill="#0a0a1a"/>
    <rect x="650" y="350" width="15" height="15" fill="#ffd700" opacity="0.4"/>
    <rect x="1250" y="340" width="15" height="15" fill="#0a0a1a"/>
    <rect x="1280" y="340" width="15" height="15" fill="#ffd700" opacity="0.5"/>
    <rect x="280" y="320" width="25" height="80" fill="#3a3a4a"/>
    <rect x="950" y="260" width="25" height="90" fill="#3a3a4a"/>
    <rect x="1550" y="300" width="25" height="80" fill="#3a3a4a"/>
    <circle cx="1700" cy="150" r="80" fill="#e8e8d0" opacity="0.9" filter="url(#moonGlow)"/>
    <circle cx="1680" cy="130" r="8" fill="#d0d0b8" opacity="0.6"/>
    <circle cx="1720" cy="160" r="6" fill="#d0d0b8" opacity="0.6"/>
    <ellipse cx="960" cy="900" rx="500" ry="100" fill="#000000" opacity="0.2"/>
    <circle cx="250" cy="100" r="1.5" fill="#ffffff" opacity="0.8"/>
    <circle cx="600" cy="80" r="1" fill="#ffffff" opacity="0.6"/>
    <circle cx="1100" cy="120" r="1.5" fill="#ffffff" opacity="0.7"/>
    <circle cx="1400" cy="90" r="1" fill="#ffffff" opacity="0.5"/>
  </svg>