<svg xmlns="http://www.w3.org/2000/svg" viewBox="0 0 1920 1080">
    <defs>
      <linearGradient id="libraryAmbient" x1="0" y1="0" x2="0" y2="1">
        <stop offset="0%" stop-color="#8b7355"/>
        <stop offset="50%" stop-color="#a0826d"/>
        <stop offset="100%" stop-color="#5a4a3a"/>
      </linearGradient>
      <linearGradient id="bookShelf" x1="0" y1="0" x2="1" y2="0">
        <stop offset="0%" stop-color="#6b4423"/>
        <stop offset="100%" stop-color="#4a3020"/>
      </linearGradient>
      <filter id="candleGlow"><feGaussianBlur stdDeviation="2"/></filter>
    </defs>
    <rect width="1920" height="1080" fill="url(#libraryAmbient)"/>
    <rect x="100" y="200" width="400" height="880" fill="url(#bookShelf)"/>
    <rect x="1420" y="200" width="400" height="880" fill="url(#bookShelf)"/>
    <line x1="100" y1="400" x2="500" y2="400" stroke="#8b4513" stroke-width="8"/>
    <line x1="100" y1="600" x2="500" y2="600" stroke="#8b4513" stroke-width="8"/>
    <line x1="100" y1="800" x2="500" y2="800" stroke="#8b4513" stroke-width="8"/>
    <line x1="1420" y1="400" x2="1820" y2="400" stroke="#8b4513" stroke-width="8"/>
    <line x1="1420" y1="600" x2="1820" y2="600" stroke="#8b4513" stroke-width="8"/>
    <line x1="1420" y1="800" x2="1820" y2="800" stroke="#8b4513" stroke-width="8"/>
    <rect x="120" y="320" width="40" height="70" fill="#8b0000"/>
    <rect x="170" y="340" width="35" height="50" fill="#1a4d2e"/>
    <rect x="215" y="330" width="38" height="60" fill="#8b6914"/>
    <rect x="265" y="350" width="35" height="40" fill="#4a1f4a"/>
    <rect x="310" y="325" width="40" height="65" fill="#1f1f4a"/>
    <rect x="1440" y="320" width="40" height="70" fill="#8b0000"/>
    <rect x="1490" y="340" width="35" height="50" fill="#1a4d2e"/>
    <rect x="1535" y="330" width="38" height="60" fill="#8b6914"/>
    <rect x="650" y="400" width="620" height="500" fill="#a0826d" opacity="0.3"/>
    <rect x="700" y="550" width="520" height="300" fill="#6b4423" opacity="0.7"/>
    <polygon points="800,600 1100,600 1095,700 805,700" fill="#f5deb3"/>
    <line x1="950" y1="600" x2="950" y2="700" stroke="#8b4513" stroke-width="2"/>
    <circle cx="750" cy="550" r="12" fill="#ffd700" filter="url(#candleGlow)"/>
    <circle cx="1150" cy="550" r="12" fill="#ffd700" filter="url(#candleGlow)"/>
    <rect x="740" y="560" width="20" height="40" fill="#8b4513"/>
    <rect x="1140" y="560" width="20" height="40" fill="#8b4513"/>
    <circle cx="1250" cy="620" r="15" fill="#f5deb3" opacity="0.9"/>
    <circle cx="1200" cy="630" r="12" fill="#e6d4a8" opacity="0.8"/>
    <line x1="850" y1="580" x2="880" y2="550" stroke="#8b4513" stroke-width="3"/>
    <circle cx="880" cy="550" r="6" fill="#1a1a1a"/>
  </svg>